<svg preserveAspectRatio="none" width="100%" height="100%" overflow="visible" style="display: block;" viewBox="0 0 22 22" fill="none" xmlns="http://www.w3.org/2000/svg">
<g id="R">
<path id="Vector" d="M21.0833 4.58333H0.916666V6.41667H21.0833V4.58333Z" fill="var(--fill-0, #88B8B4)"/>
<path id="Vector_2" d="M21.0833 15.5833H0.916666V17.4167H21.0833V15.5833Z" fill="var(--fill-0, #88B8B4)"/>
<path id="Vector_3" d="M2.75 4.58333H0.916666V17.4167H2.75V4.58333Z" fill="var(--fill-0, #88B8B4)"/>
<path id="Vector_4" d="M21.0833 4.58333H19.25V17.4167H21.0833V4.58333Z" fill="var(--fill-0, #88B8B4)"/>
<path id="Vector_5" d="M4.58333 6.41667H2.75V8.25H4.58333V6.41667Z" fill="var(--fill-0, #88B8B4)"/>
<path id="Vector_6" d="M19.25 6.41667H17.4167V8.25H19.25V6.41667Z" fill="var(--fill-0, #88B8B4)"/>
<path id="Vector_7" d="M6.41667 8.25H4.58333V10.0833H6.41667V8.25Z" fill="var(--fill-0, #88B8B4)"/>
<path id="Vector_8" d="M17.4167 8.25H15.5833V10.0833H17.4167V8.25Z" fill="var(--fill-0, #88B8B4)"/>
<path id="Vector_9" d="M8.25 10.0833H6.41667V11.9167H8.25V10.0833Z" fill="var(--fill-0, #88B8B4)"/>
<path id="Vector_10" d="M15.5833 10.0833H13.75V11.9167H15.5833V10.0833Z" fill="var(--fill-0, #88B8B4)"/>
<path id="Vector_11" d="M10.0833 11.9167H8.25V13.75H10.0833V11.9167Z" fill="var(--fill-0, #88B8B4)"/>
<path id="Vector_12" d="M13.75 11.9167H11.9167V13.75H13.75V11.9167Z" fill="var(--fill-0, #88B8B4)"/>
<path id="Vector_13" d="M11.9167 12.8333H10.0833V13.75H11.9167V12.8333Z" fill="var(--fill-0, #88B8B4)"/>
</g>
</svg>
