<svg preserveAspectRatio="none" width="100%" height="100%" overflow="visible" style="display: block;" viewBox="0 0 24 24" fill="none" xmlns="http://www.w3.org/2000/svg">
<g id="C">
<path id="Vector" d="M23 4H1V6H23V4Z" fill="var(--fill-0, #51B7A9)"/>
<path id="Vector_2" d="M23 18H1V20H23V18Z" fill="var(--fill-0, #51B7A9)"/>
<path id="Vector_3" d="M3 4H1V20H3V4Z" fill="var(--fill-0, #51B7A9)"/>
<path id="Vector_4" d="M23 4H21V20H23V4Z" fill="var(--fill-0, #51B7A9)"/>
<path id="Vector_5" d="M11 4H9V20H11V4Z" fill="var(--fill-0, #51B7A9)"/>
<path id="Vector_6" d="M23 11H1V13H23V11Z" fill="var(--fill-0, #51B7A9)"/>
<path id="Vector_7" d="M20 5H14V9H20V5Z" fill="var(--fill-0, #DD6683)"/>
<path id="Vector_8" d="M18 9H16V11H18V9Z" fill="var(--fill-0, #DD6683)"/>
<path id="Vector_9" d="M7 14H3V16H7V14Z" fill="var(--fill-0, #51B7A9)"/>
<path id="Vector_10" d="M7 13H5V17H7V13Z" fill="var(--fill-0, #51B7A9)"/>
</g>
</svg>
