<svg preserveAspectRatio="none" width="100%" height="100%" overflow="visible" style="display: block;" viewBox="0 0 16 16" fill="none" xmlns="http://www.w3.org/2000/svg">
<g id="C">
<path id="Vector" d="M15.3333 2.66667H0.666666V4H15.3333V2.66667Z" fill="var(--fill-0, #0F3A37)"/>
<path id="Vector_2" d="M15.3333 12H0.666666V13.3333H15.3333V12Z" fill="var(--fill-0, #0F3A37)"/>
<path id="Vector_3" d="M2 2.66667H0.666666V13.3333H2V2.66667Z" fill="var(--fill-0, #0F3A37)"/>
<path id="Vector_4" d="M15.3333 2.66667H14V13.3333H15.3333V2.66667Z" fill="var(--fill-0, #0F3A37)"/>
<path id="Vector_5" d="M7.33333 2.66667H6V13.3333H7.33333V2.66667Z" fill="var(--fill-0, #0F3A37)"/>
<path id="Vector_6" d="M15.3333 7.33333H0.666666V8.66667H15.3333V7.33333Z" fill="var(--fill-0, #0F3A37)"/>
<path id="Vector_7" d="M13.3333 3.33333H9.33333V6H13.3333V3.33333Z" fill="var(--fill-0, #DD6683)"/>
<path id="Vector_8" d="M12 6H10.6667V7.33333H12V6Z" fill="var(--fill-0, #DD6683)"/>
<path id="Vector_9" d="M4.66667 9.33333H2V10.6667H4.66667V9.33333Z" fill="var(--fill-0, #0F3A37)"/>
<path id="Vector_10" d="M4.66667 8.66667H3.33333V11.3333H4.66667V8.66667Z" fill="var(--fill-0, #0F3A37)"/>
</g>
</svg>
