<svg preserveAspectRatio="none" width="100%" height="100%" overflow="visible" style="display: block;" viewBox="0 0 24 24" fill="none" xmlns="http://www.w3.org/2000/svg">
<g id="R">
<path id="Vector" d="M23 5H1V7H23V5Z" fill="var(--fill-0, #51B7A9)"/>
<path id="Vector_2" d="M23 17H1V19H23V17Z" fill="var(--fill-0, #51B7A9)"/>
<path id="Vector_3" d="M3 5H1V19H3V5Z" fill="var(--fill-0, #51B7A9)"/>
<path id="Vector_4" d="M23 5H21V19H23V5Z" fill="var(--fill-0, #51B7A9)"/>
<path id="Vector_5" d="M5 7H3V9H5V7Z" fill="var(--fill-0, #51B7A9)"/>
<path id="Vector_6" d="M21 7H19V9H21V7Z" fill="var(--fill-0, #51B7A9)"/>
<path id="Vector_7" d="M7 9H5V11H7V9Z" fill="var(--fill-0, #51B7A9)"/>
<path id="Vector_8" d="M19 9H17V11H19V9Z" fill="var(--fill-0, #51B7A9)"/>
<path id="Vector_9" d="M9 11H7V13H9V11Z" fill="var(--fill-0, #51B7A9)"/>
<path id="Vector_10" d="M17 11H15V13H17V11Z" fill="var(--fill-0, #51B7A9)"/>
<path id="Vector_11" d="M11 13H9V15H11V13Z" fill="var(--fill-0, #51B7A9)"/>
<path id="Vector_12" d="M15 13H13V15H15V13Z" fill="var(--fill-0, #51B7A9)"/>
<path id="Vector_13" d="M13 14H11V15H13V14Z" fill="var(--fill-0, #51B7A9)"/>
</g>
</svg>
