<svg preserveAspectRatio="none" width="100%" height="100%" overflow="visible" style="display: block;" viewBox="0 0 18 18" fill="none" xmlns="http://www.w3.org/2000/svg">
<g id="PixelHeart">
<path id="Vector" d="M5.625 4.5H1.125V6.75H5.625V4.5Z" fill="var(--fill-0, #CC3355)"/>
<path id="Vector_2" d="M12.375 4.5H7.875V6.75H12.375V4.5Z" fill="var(--fill-0, #CC3355)"/>
<path id="Vector_3" d="M2.25 6.75H0V11.25H2.25V6.75Z" fill="var(--fill-0, #CC3355)"/>
<path id="Vector_4" d="M9 6.75H6.75V9H9V6.75Z" fill="var(--fill-0, #CC3355)"/>
<path id="Vector_5" d="M13.5 6.75H11.25V9H13.5V6.75Z" fill="var(--fill-0, #CC3355)"/>
<path id="Vector_6" d="M18 6.75H15.75V11.25H18V6.75Z" fill="var(--fill-0, #CC3355)"/>
<path id="Vector_7" d="M4.5 11.25H2.25V13.5H4.5V11.25Z" fill="var(--fill-0, #CC3355)"/>
<path id="Vector_8" d="M15.75 11.25H13.5V13.5H15.75V11.25Z" fill="var(--fill-0, #CC3355)"/>
<path id="Vector_9" d="M6.75 13.5H4.5V15.75H6.75V13.5Z" fill="var(--fill-0, #CC3355)"/>
<path id="Vector_10" d="M13.5 13.5H11.25V15.75H13.5V13.5Z" fill="var(--fill-0, #CC3355)"/>
<path id="Vector_11" d="M11.25 15.75H6.75V18H11.25V15.75Z" fill="var(--fill-0, #CC3355)"/>
</g>
</svg>
